<svg xmlns="http://www.w3.org/2000/svg" width="96.823" height="41.963" viewBox="0 0 96.823 41.963">
  <path id="Caminho_2232" data-name="Caminho 2232" d="M20.976,14.694a4.2,4.2,0,0,0,.084-8.4,4.24,4.24,0,0,0-4.287,4.1,4.2,4.2,0,0,0,4.2,4.3m-4.2,11.53h0v5.269a4.425,4.425,0,0,0,.367,1.72,3.977,3.977,0,0,0,1.218,1.572,4.213,4.213,0,0,0,6.019-.8,3.874,3.874,0,0,0,.774-2.056c.053-.727.034-1.46.035-2.19q0-4.385,0-8.77a3.957,3.957,0,0,0-.055-.613,4.1,4.1,0,0,0-1.615-2.73,4.045,4.045,0,0,0-3.54-.722,3.964,3.964,0,0,0-2.426,1.672,4.3,4.3,0,0,0-.772,2.448c0,1.733,0,3.466,0,5.2M.017,20.98v-.318a20.074,20.074,0,0,1,1.271-6.867c.338-.894.749-1.764,1.172-2.623A19.012,19.012,0,0,1,5.736,6.587,22.488,22.488,0,0,1,8.978,3.794,20.154,20.154,0,0,1,17.245.341,23.155,23.155,0,0,1,22.06.02a21.764,21.764,0,0,1,2.23.252A20.365,20.365,0,0,1,28.3,1.318a19.325,19.325,0,0,1,4.443,2.293A23.392,23.392,0,0,1,35.643,6a20.2,20.2,0,0,1,3.71,4.87c.484.9.884,1.845,1.3,2.78a27.887,27.887,0,0,1,1,3.75c.1.9.214,1.789.278,2.686a17.74,17.74,0,0,1-.143,3.56A20.943,20.943,0,0,1,30.753,39.523c-.56.29-1.14.537-1.71.806a17.827,17.827,0,0,1-4.887,1.4,21.435,21.435,0,0,1-4.422.2,20.488,20.488,0,0,1-5.427-1.037,11,11,0,0,1-1.174-.433A26.6,26.6,0,0,1,9.79,38.724a.46.46,0,0,0-.438-.053Q6.98,39.506,4.6,40.328a12.05,12.05,0,0,1-1.318.428,2.823,2.823,0,0,1-.949.02A1.362,1.362,0,0,1,1.19,39.519,3.8,3.8,0,0,1,1.5,37.731q.81-2.275,1.608-4.554c.076-.216.15-.433.213-.653a.27.27,0,0,0-.025-.188A23.288,23.288,0,0,1,.607,25.96a21.928,21.928,0,0,1-.55-3.642C.032,21.874.02,21.427,0,20.982H.018m73.49,3.153a6.057,6.057,0,0,1,.56-.57,1.655,1.655,0,0,1,2.663,1.064,4.253,4.253,0,0,1,.04.586c0,1.065,0,2.13,0,3.195v.206a3.64,3.64,0,0,1-1.423,0V28.4c0-.994,0-1.987-.01-2.98a1.976,1.976,0,0,0-.045-.39.568.568,0,0,0-.446-.518.874.874,0,0,0-.918.3,1.377,1.377,0,0,0-.242.859c0,.91,0,1.82,0,2.73v.19a2.876,2.876,0,0,1-1.43.017v-.188c0-.94.006-1.88,0-2.82a3.474,3.474,0,0,0-.1-.7A.488.488,0,0,0,71.7,24.5a.829.829,0,0,0-1.011.626,4.048,4.048,0,0,0-.105.755c-.013.833,0,1.666,0,2.5v.262l-.923.036a.682.682,0,0,1-.089-.013c-.4-.04-.4-.039-.4-.431,0-1.56,0-3.118,0-4.677,0-.152.03-.234.2-.23.29.01.582,0,.872.025.05,0,.12.09.137.151.048.17.074.346.118.57a1.714,1.714,0,0,1,1.564-.832,1.472,1.472,0,0,1,1.455.891M51.35,12.588l-.064,0-.857,2.96h1.74l-.818-2.962m3.146,5.72c-.411.006-.79.031-1.168.014-.41-.018-.41-.034-.52-.431-.09-.32-.18-.64-.26-.962-.027-.111-.07-.156-.19-.155q-1.058.009-2.115,0a.167.167,0,0,0-.195.15c-.1.407-.222.812-.342,1.216-.018.057-.079.143-.12.144-.434.01-.868,0-1.3,0-.015,0-.03-.017-.059-.036.13-.422.256-.847.39-1.27.614-1.941,1.233-3.881,1.842-5.824.053-.169.128-.245.309-.24.423.01.846.006,1.268.007a.2.2,0,0,1,.214.166q1.01,3.229,2.026,6.457c.073.232.136.466.222.763m1.152,10.308a3.671,3.671,0,0,1-1.432,0V28.4c0-.869,0-1.738,0-2.606a4.811,4.811,0,0,0-.066-.725.672.672,0,0,0-.783-.583c-.63.058-.9.425-.927,1.14-.039.92-.014,1.843-.016,2.765v.22a3.634,3.634,0,0,1-1.417,0V23.37a2.464,2.464,0,0,1,1.092-.013c.045.008.093.087.108.142.047.181.08.366.118.55a6.249,6.249,0,0,1,.545-.5,1.937,1.937,0,0,1,2.138.016,1.583,1.583,0,0,1,.608,1.3c.033.95.026,1.9.034,2.853,0,.3,0,.593,0,.9m4.589-13.566h2.057a1.1,1.1,0,0,0-.448-.933,1.04,1.04,0,0,0-1.122,0,1.1,1.1,0,0,0-.487.932m3.36,1.006H60.23a1.042,1.042,0,0,0,.809,1.082,3.133,3.133,0,0,0,1.811-.1c.186-.058.269-.02.309.151.06.26.12.519.164.78a.185.185,0,0,1-.1.15,4.552,4.552,0,0,1-2.83.093,2.226,2.226,0,0,1-1.537-1.925,3.474,3.474,0,0,1,.175-1.892,2.365,2.365,0,0,1,2.614-1.489,2.163,2.163,0,0,1,1.967,2.065,6.093,6.093,0,0,1,.025.676,3.948,3.948,0,0,1-.045.409M76.1,15.813a3.2,3.2,0,0,0-.225-1.322A.885.885,0,0,0,75,14a.837.837,0,0,0-.841.521,2.977,2.977,0,0,0-.018,2.19.971.971,0,0,0,1.773-.027,7.451,7.451,0,0,0,.19-.867m1.45-.175a3.335,3.335,0,0,1-.251,1.307,2.161,2.161,0,0,1-1.79,1.4,2.621,2.621,0,0,1-2.07-.448,2.342,2.342,0,0,1-.774-1.171,3.568,3.568,0,0,1,.009-2.226,2.249,2.249,0,0,1,2.114-1.61,2.788,2.788,0,0,1,1.477.27,2.32,2.32,0,0,1,1.216,1.788c.04.228.046.46.068.69M63.226,25.953c-.01-.116-.017-.3-.042-.482a3.491,3.491,0,0,0-.094-.417.876.876,0,0,0-.8-.686.863.863,0,0,0-1.014.545,3.162,3.162,0,0,0-.176.848,2.6,2.6,0,0,0,.2,1.41.987.987,0,0,0,1.708,0,2.768,2.768,0,0,0,.217-1.214m-1.076,2.78a2.288,2.288,0,0,1-1.887-.766,2.6,2.6,0,0,1-.6-1.48,3.4,3.4,0,0,1,.38-2.14,2.18,2.18,0,0,1,1.7-1.077,2.845,2.845,0,0,1,1.492.177,2.227,2.227,0,0,1,1.345,1.7,3.823,3.823,0,0,1-.076,2,2.243,2.243,0,0,1-2.084,1.575c-.09,0-.18,0-.269,0m32.122-4.368a.833.833,0,0,0-.9.569,3.167,3.167,0,0,0,0,2.149.818.818,0,0,0,.611.549.963.963,0,0,0,1.254-.77,3.47,3.47,0,0,0-.025-1.762.894.894,0,0,0-.939-.735m2.551,1.752a8.365,8.365,0,0,1-.25,1.137,2.119,2.119,0,0,1-1.827,1.453,2.473,2.473,0,0,1-2.4-.777,2.556,2.556,0,0,1-.56-1.347,3.533,3.533,0,0,1,.31-2.13,2.16,2.16,0,0,1,1.743-1.18,2.751,2.751,0,0,1,1.716.276,2.18,2.18,0,0,1,1.108,1.481c.078.333.1.678.161,1.087M82.8,15.842a2.033,2.033,0,0,0-1.17.046.645.645,0,0,0-.442.7.6.6,0,0,0,.53.6,6.235,6.235,0,0,0,.976,0c.036,0,.1-.07.1-.108.007-.41,0-.819,0-1.24m-.013-.932a.717.717,0,0,0-.714-.89,3.576,3.576,0,0,0-1.447.15l-.114.034a1.866,1.866,0,0,1-.285-.939.151.151,0,0,1,.08-.112,4.431,4.431,0,0,1,2.62-.124,1.637,1.637,0,0,1,1.228,1.541c.046.568.034,1.14.04,1.71q.007.821,0,1.642c0,.059-.047.157-.092.17a5.643,5.643,0,0,1-2.963.172,2.244,2.244,0,0,1-.72-.337A1.33,1.33,0,0,1,79.9,17.1a1.639,1.639,0,0,1,1.362-2.1,3.767,3.767,0,0,1,1.26-.086,2.232,2.232,0,0,0,.26,0M80.35,26.228a2.1,2.1,0,0,0-1.238.088.633.633,0,0,0-.369.688.594.594,0,0,0,.446.561,2.147,2.147,0,0,0,1.077.018.131.131,0,0,0,.08-.094c.006-.415,0-.83,0-1.26m1.367,2.21a5.709,5.709,0,0,1-3.084.173,1.63,1.63,0,0,1-.987-2.487A1.875,1.875,0,0,1,79,25.356a10.451,10.451,0,0,1,1.049-.053c.094,0,.188,0,.28,0a.693.693,0,0,0-.58-.9,3.232,3.232,0,0,0-1.453.088c-.068.02-.137.04-.206.058a.185.185,0,0,1-.047-.007,1.81,1.81,0,0,1-.263-.886.2.2,0,0,1,.1-.152,4.535,4.535,0,0,1,2.483-.154,1.656,1.656,0,0,1,1.344,1.6c.034,1.15.009,2.3.009,3.486m8.012-2.191a2.083,2.083,0,0,0-1.162.034.645.645,0,0,0-.438.73.582.582,0,0,0,.533.576,6.226,6.226,0,0,0,.956,0,.168.168,0,0,0,.106-.124c.008-.4,0-.805,0-1.216m0-.947a.73.73,0,0,0-.753-.923,3.315,3.315,0,0,0-1.378.146c-.13.045-.2.012-.228-.1-.07-.255-.139-.511-.194-.77a.169.169,0,0,1,.089-.14A4.349,4.349,0,0,1,89.9,23.4,1.667,1.667,0,0,1,91.1,25.035c.028,1.093.015,2.188.013,3.282a.181.181,0,0,1-.092.14,5.518,5.518,0,0,1-3.084.13,1.481,1.481,0,0,1-1.158-1.47A1.518,1.518,0,0,1,87.8,25.523a3.505,3.505,0,0,1,1.613-.224c.1.006.2,0,.315,0m-3.555,2.1a1.9,1.9,0,0,1,.279,1.006.172.172,0,0,1-.109.124c-.36.074-.72.154-1.085.2-.307.037-.378.086-.406.417.181.02.367.027.545.065a.859.859,0,0,1,.21,1.632,2.983,2.983,0,0,1-1.863.15c.013-.106.021-.187.032-.267.055-.414.076-.416.477-.372a3.134,3.134,0,0,0,.69-.028.253.253,0,0,0,.241-.265.251.251,0,0,0-.247-.276c-.27-.017-.543,0-.814,0a1.715,1.715,0,0,0-.234.042l.4-1.126a.79.79,0,0,0-.109-.046,2.219,2.219,0,0,1-1.717-1.767,3.424,3.424,0,0,1,.274-2.476,2.193,2.193,0,0,1,1.754-1.143,3.773,3.773,0,0,1,1.762.18c.1.037.142.08.133.191a2.335,2.335,0,0,1-.23.882c-.312-.047-.6-.1-.9-.13a1.129,1.129,0,0,0-1.237.587,2.409,2.409,0,0,0-.061,1.923,1.067,1.067,0,0,0,1.02.686,2.3,2.3,0,0,0,1.188-.19M58.354,28.615a3.614,3.614,0,0,1-1.416,0v-4.17h-.854V23.37c.238,0,.464-.008.689,0,.136.006.165-.045.173-.174a4.1,4.1,0,0,1,.106-.86,1.663,1.663,0,0,1,1.19-1.156,3.1,3.1,0,0,1,1.572-.026c.108.024.149.06.123.181-.057.267-.1.537-.142.805-.022.129-.08.163-.223.14a2.367,2.367,0,0,0-.637-.014.573.573,0,0,0-.538.494c-.034.19-.045.385-.069.608H59.2c.37,0,.381,0,.414.361a4.873,4.873,0,0,1-.02.6c0,.114-.081.111-.163.11H58.354v4.17ZM64.37,16.982a3.038,3.038,0,0,0,1.412.258,2.138,2.138,0,0,0,.6-.158.463.463,0,0,0-.032-.842c-.3-.107-.617-.184-.916-.3a3.333,3.333,0,0,1-.749-.365,1.264,1.264,0,0,1-.43-1.334,1.61,1.61,0,0,1,1.508-1.32,4.526,4.526,0,0,1,1.941.19c.124.038.16.1.124.22-.081.282-.154.566-.234.865a3.068,3.068,0,0,0-1.244-.252,1.842,1.842,0,0,0-.37.051.373.373,0,0,0-.317.36.358.358,0,0,0,.266.43c.277.1.57.172.845.283a3.087,3.087,0,0,1,.793.392,1.6,1.6,0,0,1,.155,2.064,2.133,2.133,0,0,1-1.624.84,4.131,4.131,0,0,1-1.818-.2c-.123-.044-.18-.1-.145-.229.08-.307.156-.617.24-.953m7.58-3.806-.273.955c-.447-.067-.849-.136-1.253-.184a.994.994,0,0,0-.37.047.375.375,0,0,0-.316.34c-.019.25.029.359.259.449.276.109.564.19.846.282.068.023.137.042.2.066a1.529,1.529,0,0,1,.7,2.447,2.142,2.142,0,0,1-1.578.785,4.142,4.142,0,0,1-1.819-.2c-.112-.039-.176-.085-.144-.212l.23-.944a6.466,6.466,0,0,0,.85.206,4.888,4.888,0,0,0,.872-.01.766.766,0,0,0,.3-.116.46.46,0,0,0,.253-.457.43.43,0,0,0-.306-.4c-.29-.1-.592-.18-.882-.286a4.316,4.316,0,0,1-.68-.3,1.09,1.09,0,0,1-.527-.9,1.557,1.557,0,0,1,1.38-1.787,4.246,4.246,0,0,1,2.257.226m-13.663.983c-.36-.049-.683-.114-1.008-.131a1.147,1.147,0,0,0-1.272.958,2.738,2.738,0,0,0,0,1.307,1.139,1.139,0,0,0,1.136.907,3.6,3.6,0,0,0,.588-.03,6.116,6.116,0,0,0,.6-.149,4.814,4.814,0,0,1,.208.693c.068.441.054.45-.387.556a4.06,4.06,0,0,1-1.863.024,2.149,2.149,0,0,1-1.559-1.366,3.345,3.345,0,0,1-.022-2.557,2.245,2.245,0,0,1,2.053-1.478,3.536,3.536,0,0,1,1.635.213c.048.02.116.084.113.123a2.2,2.2,0,0,1-.23.93M48.455,21.3h1.462v7.35l-.956.033c-.024,0-.047-.009-.07-.011-.436-.046-.436-.046-.436-.473V21.3Zm17,2.072a2.355,2.355,0,0,1,1.046-.012.242.242,0,0,1,.15.141c.055.18.086.368.125.552l.072.063a.656.656,0,0,1,.07-.162,1.559,1.559,0,0,1,1.468-.64c.138.016.21.059.207.2-.008.353-.013.706-.02,1.068-.18,0-.31,0-.44,0-.764-.032-1.091.345-1.22,1.065a2.936,2.936,0,0,0-.036.514c0,.762,0,1.523,0,2.284v.21h-1.42V23.369Zm25.01-2.139c.115.2.23.378.319.568.121.258.114.274-.109.446a1.392,1.392,0,0,1-1.3.249q-.257-.076-.507-.172a1.046,1.046,0,0,0-1.274.21c-.13-.235-.256-.442-.356-.661a.26.26,0,0,1,.05-.231,1.3,1.3,0,0,1,1.387-.369c.2.06.394.135.592.2a1.021,1.021,0,0,0,1.2-.242M83.04,12.185a3.758,3.758,0,0,1-1.278,0,.461.461,0,0,1-.192-.118q-.684-.538-1.328-1.124c.213-.02.426-.051.64-.053.273,0,.547.02.821.033a.47.47,0,0,1,.353.173c.313.358.638.706.983,1.085" transform="translate(0 0)" fill="#fff" fill-rule="evenodd"/>
</svg>
